<?xml version="1.0" encoding="iso-8859-1"?>
<!-- Generator: Adobe Illustrator 19.0.0, SVG Export Plug-In . SVG Version: 6.00 Build 0)  -->
<svg xmlns="http://www.w3.org/2000/svg" xmlns:xlink="http://www.w3.org/1999/xlink" version="1.1" id="Layer_1" x="0px" y="0px" viewBox="0 0 512.001 512.001" style="enable-background:new 0 0 512.001 512.001;" xml:space="preserve">
<circle style="fill:#3A4DE3;" cx="255.997" cy="255.996" r="255.996"/>
<path style="fill:#1C2EDE;" d="M512.001,256.001c0-25.507-3.748-50.133-10.693-73.382L396.491,77.801  c-3.171-3.765-6.901-6.661-10.72-8.259c-37.641-15.75-76.547,13.683-102.724,41.395c-7.721-4.572-16.86-7.229-26.666-7.229  c-9.97,0-19.25,2.748-27.052,7.462c-1.128-1.145-2.277-2.289-3.445-3.43c-26.092-26.708-63.456-53.343-99.652-38.198  c-16.383,6.855-31.21,37.466-6.641,59.044l21.937,22.043H78.169v53.475l18.183,16.814v206.342l67.721,67.721  c28.534,10.984,59.524,17.019,91.928,17.019C397.385,512,512.001,397.385,512.001,256.001z"/>
<path style="fill:#009AE5;" d="M256.379,103.709c-27.63,0-50.029,21.007-50.029,46.92h100.057  C306.408,124.715,284.009,103.709,256.379,103.709z"/>
<path style="fill:#0082D1;" d="M306.408,150.629c0-25.913-22.398-46.92-50.029-46.92v46.92H306.408z"/>
<rect x="96.349" y="197.566" style="fill:#FFFFFF;" width="319.295" height="229.686"/>
<rect x="255.548" y="197.566" style="fill:#E1E1E3;" width="160.097" height="229.686"/>
<rect x="96.349" y="197.566" style="fill:#C8C6CC;" width="319.295" height="19.238"/>
<rect x="255.548" y="197.566" style="fill:#AEADB3;" width="160.097" height="19.238"/>
<rect x="78.168" y="150.63" style="fill:#FFFFFF;" width="355.657" height="53.477"/>
<rect x="255.548" y="150.63" style="fill:#E1E1E3;" width="178.288" height="53.477"/>
<polygon style="fill:#49BBEE;" points="415.649,267.747 295.748,267.747 295.748,150.629 216.254,150.629 216.254,267.747   96.352,267.747 96.352,347.242 216.254,347.242 216.254,427.26 295.748,427.26 295.748,347.242 415.649,347.242 "/>
<polygon style="fill:#009AE5;" points="295.748,267.747 295.748,150.629 256.001,150.629 256.001,427.26 295.748,427.26   295.748,347.242 415.649,347.242 415.649,267.747 "/>
<path style="fill:#49BBEE;" d="M260.487,150.629c0,0-69.028-108.378-134.255-81.087c-25.904,10.839-47.97,81.087,83.507,81.087  H260.487z"/>
<g>
	<path style="fill:#009AE5;" d="M251.515,150.629c0,0-52.03-68.359-91.603-56.021c-19.942,6.217-22.665,56.021,70.355,56.021   H251.515z"/>
	<path style="fill:#009AE5;" d="M251.515,150.629c0,0,69.028-108.378,134.255-81.087c25.904,10.839,47.97,81.087-83.507,81.087   H251.515z"/>
</g>
<path style="fill:#0082D1;" d="M260.487,150.629c0,0,52.03-68.359,91.603-56.021c19.942,6.217,22.665,56.021-70.355,56.021H260.487z  "/>
<g>
</g>
<g>
</g>
<g>
</g>
<g>
</g>
<g>
</g>
<g>
</g>
<g>
</g>
<g>
</g>
<g>
</g>
<g>
</g>
<g>
</g>
<g>
</g>
<g>
</g>
<g>
</g>
<g>
</g>
</svg>
